# xmcd CD database file
#
# Track frame offsets:
#	150
#	12482
#	25580
#	38002
#	50417
#	62877
#	76135
#	87130
#	100382
#	112130
#	124745
#	138555
#
# Disc length: 2011 seconds
#
# Revision: 2
# Processed by: cddbd v1.5.2PL0 Copyright (c) Steve Scherf et al.
# Submitted via: CDex 1.70beta2
#
DISCID=9a07d90c
DTITLE=Hank Williams - The Very Best of Hank Williams
DYEAR=1963
DGENRE=Country
TTITLE0=Your Cheatin' Heart
TTITLE1=Jambalaya
TTITLE2=Lovesick Blues
TTITLE3=Half As Much
TTITLE4=Cold Cold Heart
TTITLE5=Hey, Good Lookin'
TTITLE6=Why Don't You Love Me
TTITLE7=Weddin' Bells
TTITLE8=Kaw-Liga
TTITLE9=So Lonesome I Could Cry
TTITLE10=Ramblin' Man
TTITLE11=Honky Tonkin'
EXTD=YEAR: 1963
EXTT0=
EXTT1=
EXTT2=
EXTT3=
EXTT4=
EXTT5=
EXTT6=
EXTT7=
EXTT8=
EXTT9=
EXTT10=
EXTT11=
PLAYORDER=
